<svg width="427" height="120" viewBox="0 0 427 120" fill="none" xmlns="http://www.w3.org/2000/svg">
<path d="M389.546 88.5788L389.5 81.8084L387.738 78.6201L390.112 77.3088L391.873 80.4971L397.58 84.1405L394.932 85.6031L391.941 83.4236L392.194 87.1161L389.546 88.5788Z" fill="#90BD3A"/>
<path d="M356.379 19.2132C357.543 18.5702 358.707 18.4661 359.926 18.8402C361.146 19.2143 362.079 19.9863 362.738 21.1791C363.397 22.3718 363.566 23.5954 363.234 24.827C362.901 26.0585 362.158 26.978 361.017 27.6084L357.57 29.5124L352.933 21.1172L356.379 19.2132ZM359.724 25.2688C360.683 24.7392 360.972 23.5914 360.364 22.4904C359.756 21.3894 358.63 21.0233 357.672 21.5529L356.713 22.0825L358.778 25.8213L359.737 25.2917L359.724 25.2688Z" fill="#90BD3A"/>
<path d="M373.501 21.5202L377.048 21.4166L377.121 23.9211L370.866 24.0837L370.582 14.5106L376.779 14.3503L376.865 16.8778L373.398 16.9664L373.431 17.9962L376.57 17.9086L376.64 20.3546L373.479 20.4548L373.501 21.5202Z" fill="#90BD3A"/>
<path d="M387.591 24.2147L390.45 25.5088L389.375 27.9294L384.035 25.4902L387.948 16.7724L390.45 17.9048L387.591 24.2147Z" fill="#90BD3A"/>
<path d="M400.991 25.0148L402.897 26.9555L396.105 33.6417L394.186 31.6781L400.991 25.0148Z" fill="#90BD3A"/>
<path d="M401.065 41.3788L408.93 35.1778L409.986 38.0071L404.848 41.5941L411.071 40.9407L412.127 43.7699L402.112 44.2436L401.065 41.3788Z" fill="#90BD3A"/>
<path d="M405.78 56.1687L405.383 59.7109L402.893 59.4099L403.582 53.1614L413.07 54.2668L412.366 60.4338L409.889 60.1557L410.265 56.6846L409.243 56.5605L408.91 59.6784L406.469 59.4107L406.824 56.2802L405.78 56.1687Z" fill="#90BD3A"/>
<path d="M398.114 69.6843L401.448 70.0578L401.821 69.4925L399.309 67.8567L400.788 65.5727L408.794 70.7899L406.724 73.9992C406.166 74.8763 405.43 75.4323 404.54 75.6546C403.663 75.8998 402.803 75.7459 401.949 75.17C401.011 74.5506 400.501 73.5746 400.537 72.507L396.526 72.1483L398.114 69.6843ZM405.211 71.6916L403.72 70.7188L403.162 71.5959C402.832 72.0775 402.923 72.566 403.38 72.8528C403.849 73.1625 404.323 73.0503 404.64 72.5458L405.211 71.6916Z" fill="#90BD3A"/>
<path d="M12.2168 81.3926V119.186H3.07617V75.2988H11.6016L12.2168 81.3926ZM31.9922 90.7969V91.4121C31.9922 93.7168 31.7285 95.8555 31.2012 97.8281C30.6738 99.7812 29.8828 101.49 28.8281 102.955C27.793 104.42 26.5137 105.562 24.9902 106.383C23.4668 107.184 21.6992 107.584 19.6875 107.584C17.7734 107.584 16.1133 107.184 14.707 106.383C13.3203 105.562 12.1484 104.43 11.1914 102.984C10.2539 101.52 9.49219 99.8496 8.90625 97.9746C8.33984 96.0801 7.90039 94.0586 7.58789 91.9102V90.709C7.90039 88.4238 8.34961 86.3047 8.93555 84.3516C9.52148 82.3984 10.2832 80.709 11.2207 79.2832C12.1582 77.8379 13.3203 76.7148 14.707 75.9141C16.0938 75.1133 17.7441 74.7129 19.6582 74.7129C21.6504 74.7129 23.418 75.0938 24.9609 75.8555C26.5039 76.6172 27.793 77.7109 28.8281 79.1367C29.8828 80.543 30.6738 82.2324 31.2012 84.2051C31.7285 86.1777 31.9922 88.375 31.9922 90.7969ZM22.8223 91.4121V90.7969C22.8223 89.5078 22.7246 88.3262 22.5293 87.252C22.334 86.1582 22.0215 85.2109 21.5918 84.4102C21.1621 83.5898 20.5957 82.9551 19.8926 82.5059C19.1895 82.0566 18.3301 81.832 17.3145 81.832C16.2207 81.832 15.293 82.0078 14.5312 82.3594C13.7695 82.7109 13.1543 83.2285 12.6855 83.9121C12.2168 84.5762 11.875 85.3965 11.6602 86.373C11.4648 87.3496 11.3574 88.4629 11.3379 89.7129V92.9355C11.3574 94.4004 11.5625 95.709 11.9531 96.8613C12.3633 97.9941 12.998 98.8828 13.8574 99.5273C14.7363 100.152 15.9082 100.465 17.373 100.465C18.4082 100.465 19.2676 100.24 19.9512 99.791C20.6543 99.3223 21.2109 98.668 21.6211 97.8281C22.0508 96.9883 22.3535 96.0215 22.5293 94.9277C22.7246 93.834 22.8223 92.6621 22.8223 91.4121ZM51.7969 107.584C49.2773 107.584 47.0215 107.184 45.0293 106.383C43.0371 105.582 41.3477 104.479 39.9609 103.072C38.5938 101.646 37.5488 100.006 36.8262 98.1504C36.1035 96.2949 35.7422 94.3125 35.7422 92.2031V91.0898C35.7422 88.7266 36.0742 86.5488 36.7383 84.5566C37.4023 82.5645 38.3691 80.8359 39.6387 79.3711C40.9277 77.8867 42.5098 76.7441 44.3848 75.9434C46.2598 75.123 48.3984 74.7129 50.8008 74.7129C53.0469 74.7129 55.0488 75.084 56.8066 75.8262C58.5645 76.5488 60.0488 77.5938 61.2598 78.9609C62.4707 80.3086 63.3887 81.9395 64.0137 83.8535C64.6582 85.748 64.9805 87.877 64.9805 90.2402V93.9902H39.4336V88.1016H56.0156V87.3984C56.0156 86.2852 55.8105 85.3086 55.4004 84.4688C55.0098 83.6289 54.4238 82.9844 53.6426 82.5352C52.8809 82.0664 51.9141 81.832 50.7422 81.832C49.6289 81.832 48.7012 82.0664 47.959 82.5352C47.2168 83.0039 46.6211 83.668 46.1719 84.5273C45.7422 85.3672 45.4297 86.3535 45.2344 87.4863C45.0391 88.5996 44.9414 89.8008 44.9414 91.0898V92.2031C44.9414 93.4336 45.1074 94.5566 45.4395 95.5723C45.7715 96.5879 46.2598 97.457 46.9043 98.1797C47.5488 98.9023 48.3301 99.4688 49.248 99.8789C50.166 100.289 51.2109 100.494 52.3828 100.494C53.8281 100.494 55.2051 100.221 56.5137 99.6738C57.8223 99.1074 58.9551 98.2285 59.9121 97.0371L64.1895 101.93C63.5449 102.867 62.6367 103.775 61.4648 104.654C60.3125 105.514 58.9258 106.217 57.3047 106.764C55.6836 107.311 53.8477 107.584 51.7969 107.584ZM82.6758 100.465C83.6523 100.465 84.502 100.279 85.2246 99.9082C85.9473 99.5371 86.5039 99.0195 86.8945 98.3555C87.3047 97.6719 87.5098 96.8516 87.5098 95.8945H96.123C96.123 98.1992 95.5273 100.23 94.3359 101.988C93.1641 103.746 91.582 105.123 89.5898 106.119C87.5977 107.096 85.3516 107.584 82.8516 107.584C80.3906 107.584 78.2422 107.184 76.4062 106.383C74.5703 105.562 73.0371 104.42 71.8066 102.955C70.5762 101.49 69.6484 99.791 69.0234 97.8574C68.418 95.9043 68.1152 93.7949 68.1152 91.5293V90.7676C68.1152 88.5215 68.418 86.4219 69.0234 84.4688C69.6484 82.5156 70.5762 80.8066 71.8066 79.3418C73.0371 77.877 74.5605 76.7441 76.377 75.9434C78.2129 75.123 80.3613 74.7129 82.8223 74.7129C85.4199 74.7129 87.7148 75.2109 89.707 76.207C91.7188 77.2031 93.291 78.6387 94.4238 80.5137C95.5566 82.3691 96.123 84.6055 96.123 87.2227H87.5098C87.5098 86.207 87.3242 85.2988 86.9531 84.498C86.6016 83.6777 86.0547 83.0332 85.3125 82.5645C84.5898 82.0762 83.6914 81.832 82.6172 81.832C81.5039 81.832 80.5859 82.0762 79.8633 82.5645C79.1602 83.0332 78.623 83.6875 78.252 84.5273C77.8809 85.3672 77.627 86.3242 77.4902 87.3984C77.3535 88.4531 77.2852 89.5762 77.2852 90.7676V91.5293C77.2852 92.7402 77.3535 93.8926 77.4902 94.9863C77.627 96.0605 77.8809 97.0078 78.252 97.8281C78.6426 98.6484 79.1895 99.293 79.8926 99.7617C80.5957 100.23 81.5234 100.465 82.6758 100.465ZM117.598 75.2988V106.998H108.398V75.2988H117.598ZM127.705 75.2988V82.3594H98.4668V75.2988H127.705ZM129.463 91.4707V90.8555C129.463 88.5312 129.795 86.3926 130.459 84.4395C131.123 82.4668 132.1 80.7578 133.389 79.3125C134.678 77.8672 136.26 76.7441 138.135 75.9434C140.01 75.123 142.158 74.7129 144.58 74.7129C147.041 74.7129 149.209 75.123 151.084 75.9434C152.979 76.7441 154.57 77.8672 155.859 79.3125C157.148 80.7578 158.125 82.4668 158.789 84.4395C159.453 86.3926 159.785 88.5312 159.785 90.8555V91.4707C159.785 93.7754 159.453 95.9141 158.789 97.8867C158.125 99.8398 157.148 101.549 155.859 103.014C154.57 104.459 152.988 105.582 151.113 106.383C149.238 107.184 147.08 107.584 144.639 107.584C142.217 107.584 140.059 107.184 138.164 106.383C136.27 105.582 134.678 104.459 133.389 103.014C132.1 101.549 131.123 99.8398 130.459 97.8867C129.795 95.9141 129.463 93.7754 129.463 91.4707ZM138.633 90.8555V91.4707C138.633 92.7207 138.73 93.8926 138.926 94.9863C139.141 96.0801 139.482 97.0371 139.951 97.8574C140.42 98.6777 141.035 99.3223 141.797 99.791C142.578 100.24 143.525 100.465 144.639 100.465C145.752 100.465 146.689 100.24 147.451 99.791C148.213 99.3223 148.828 98.6777 149.297 97.8574C149.766 97.0371 150.098 96.0801 150.293 94.9863C150.508 93.8926 150.615 92.7207 150.615 91.4707V90.8555C150.615 89.625 150.508 88.4727 150.293 87.3984C150.098 86.3047 149.766 85.3379 149.297 84.498C148.828 83.6582 148.203 83.0039 147.422 82.5352C146.66 82.0664 145.713 81.832 144.58 81.832C143.486 81.832 142.559 82.0664 141.797 82.5352C141.035 83.0039 140.42 83.6582 139.951 84.498C139.482 85.3379 139.141 86.3047 138.926 87.3984C138.73 88.4727 138.633 89.625 138.633 90.8555ZM173.76 81.3926V119.186H164.619V75.2988H173.145L173.76 81.3926ZM193.535 90.7969V91.4121C193.535 93.7168 193.271 95.8555 192.744 97.8281C192.217 99.7812 191.426 101.49 190.371 102.955C189.336 104.42 188.057 105.562 186.533 106.383C185.01 107.184 183.242 107.584 181.23 107.584C179.316 107.584 177.656 107.184 176.25 106.383C174.863 105.562 173.691 104.43 172.734 102.984C171.797 101.52 171.035 99.8496 170.449 97.9746C169.883 96.0801 169.443 94.0586 169.131 91.9102V90.709C169.443 88.4238 169.893 86.3047 170.479 84.3516C171.064 82.3984 171.826 80.709 172.764 79.2832C173.701 77.8379 174.863 76.7148 176.25 75.9141C177.637 75.1133 179.287 74.7129 181.201 74.7129C183.193 74.7129 184.961 75.0938 186.504 75.8555C188.047 76.6172 189.336 77.7109 190.371 79.1367C191.426 80.543 192.217 82.2324 192.744 84.2051C193.271 86.1777 193.535 88.375 193.535 90.7969ZM184.365 91.4121V90.7969C184.365 89.5078 184.268 88.3262 184.072 87.252C183.877 86.1582 183.564 85.2109 183.135 84.4102C182.705 83.5898 182.139 82.9551 181.436 82.5059C180.732 82.0566 179.873 81.832 178.857 81.832C177.764 81.832 176.836 82.0078 176.074 82.3594C175.312 82.7109 174.697 83.2285 174.229 83.9121C173.76 84.5762 173.418 85.3965 173.203 86.373C173.008 87.3496 172.9 88.4629 172.881 89.7129V92.9355C172.9 94.4004 173.105 95.709 173.496 96.8613C173.906 97.9941 174.541 98.8828 175.4 99.5273C176.279 100.152 177.451 100.465 178.916 100.465C179.951 100.465 180.811 100.24 181.494 99.791C182.197 99.3223 182.754 98.668 183.164 97.8281C183.594 96.9883 183.896 96.0215 184.072 94.9277C184.268 93.834 184.365 92.6621 184.365 91.4121ZM215.186 99.4395V85.8457C215.186 84.8887 215.039 84.0684 214.746 83.3848C214.453 82.7012 213.994 82.1641 213.369 81.7734C212.744 81.3828 211.934 81.1875 210.938 81.1875C210.098 81.1875 209.365 81.334 208.74 81.627C208.135 81.9199 207.666 82.3398 207.334 82.8867C207.021 83.4336 206.865 84.1074 206.865 84.9082H197.725C197.725 83.4824 198.047 82.1543 198.691 80.9238C199.336 79.6934 200.254 78.6094 201.445 77.6719C202.656 76.7344 204.102 76.0117 205.781 75.5039C207.461 74.9766 209.346 74.7129 211.436 74.7129C213.916 74.7129 216.123 75.1328 218.057 75.9727C220.01 76.793 221.553 78.0332 222.686 79.6934C223.818 81.334 224.385 83.4043 224.385 85.9043V99.1758C224.385 101.09 224.492 102.594 224.707 103.688C224.941 104.762 225.273 105.699 225.703 106.5V106.998H216.475C216.045 106.08 215.723 104.947 215.508 103.6C215.293 102.232 215.186 100.846 215.186 99.4395ZM216.328 87.6621L216.387 92.7012H211.846C210.83 92.7012 209.951 92.8281 209.209 93.082C208.486 93.3359 207.9 93.6875 207.451 94.1367C207.002 94.5664 206.67 95.0742 206.455 95.6602C206.26 96.2266 206.162 96.8516 206.162 97.5352C206.162 98.1797 206.318 98.7656 206.631 99.293C206.943 99.8008 207.373 100.201 207.92 100.494C208.467 100.787 209.102 100.934 209.824 100.934C211.016 100.934 212.031 100.699 212.871 100.23C213.73 99.7617 214.395 99.1953 214.863 98.5312C215.332 97.8477 215.566 97.2129 215.566 96.627L217.764 100.436C217.412 101.217 216.982 102.027 216.475 102.867C215.967 103.688 215.322 104.459 214.541 105.182C213.76 105.885 212.812 106.461 211.699 106.91C210.605 107.359 209.287 107.584 207.744 107.584C205.752 107.584 203.945 107.184 202.324 106.383C200.703 105.562 199.404 104.439 198.428 103.014C197.471 101.588 196.992 99.9473 196.992 98.0918C196.992 96.4316 197.295 94.957 197.9 93.668C198.506 92.3789 199.414 91.2852 200.625 90.3867C201.855 89.4883 203.398 88.8145 205.254 88.3652C207.109 87.8965 209.277 87.6621 211.758 87.6621H216.328ZM252.188 87.8965V94.957H236.221V87.8965H252.188ZM239.414 75.2988V106.998H230.273V75.2988H239.414ZM258.223 75.2988V106.998H249.023V75.2988H258.223ZM270.41 84.3516H279.492C282.461 84.3516 285 84.8301 287.109 85.7871C289.219 86.7441 290.84 88.082 291.973 89.8008C293.105 91.5195 293.672 93.5117 293.672 95.7773C293.672 97.3984 293.35 98.9023 292.705 100.289C292.08 101.656 291.152 102.838 289.922 103.834C288.711 104.83 287.227 105.611 285.469 106.178C283.711 106.725 281.719 106.998 279.492 106.998H264.785V75.2988H273.984V99.9375H279.492C280.703 99.9375 281.67 99.752 282.393 99.3809C283.135 98.9902 283.672 98.4727 284.004 97.8281C284.355 97.1836 284.531 96.4902 284.531 95.748C284.531 94.9473 284.355 94.2246 284.004 93.5801C283.672 92.916 283.135 92.3984 282.393 92.0273C281.67 91.6367 280.703 91.4414 279.492 91.4414H270.41V84.3516ZM307.764 75.2988V106.998H298.564V75.2988H307.764Z" fill="url(#paint0_linear_1318_351)"/>
<path d="M346.818 104.225C346.959 106.842 344.889 109.047 342.269 109.074C339.646 109.1 337.531 106.931 337.625 104.309L338.96 66.7062C339.015 65.1457 340.288 63.9047 341.85 63.8891C343.413 63.8734 344.712 65.0916 344.796 66.6528L346.818 104.225Z" fill="#90BD3A"/>
<path d="M334.105 45.0098H349.97V65.7459C349.97 68.5073 347.731 70.7459 344.97 70.7459H339.105C336.344 70.7459 334.105 68.5073 334.105 65.7459V45.0098Z" fill="#90BD3A"/>
<rect x="337.312" y="42.6836" width="2.9081" height="17.5936" fill="white"/>
<rect x="343.769" y="42.6836" width="2.9081" height="17.5936" fill="white"/>
<path d="M374.985 104.223C375.126 106.84 373.057 109.045 370.437 109.072C367.813 109.098 365.699 106.929 365.792 104.307L367.127 66.7042C367.183 65.1437 368.456 63.9028 370.017 63.8871C371.581 63.8714 372.879 65.0896 372.963 66.6509L374.985 104.223Z" fill="black"/>
<rect x="358.582" y="44.9941" width="23.3759" height="25.8365" rx="11.6879" fill="black"/>
<defs>
<linearGradient id="paint0_linear_1318_351" x1="4.5" y1="118.998" x2="306.5" y2="122.998" gradientUnits="userSpaceOnUse">
<stop/>
<stop offset="1" stop-color="#90BD3A"/>
</linearGradient>
</defs>
</svg>
