<svg width="404" height="92" viewBox="0 0 404 92" fill="none" xmlns="http://www.w3.org/2000/svg">
<path d="M368.318 84.1562L368.274 77.7062L366.596 74.6687L368.857 73.4194L370.535 76.4569L375.972 79.9279L373.449 81.3213L370.6 79.2449L370.84 82.7628L368.318 84.1562Z" fill="#90BD3A"/>
<path d="M336.72 18.0729C337.829 17.4602 338.938 17.3611 340.099 17.7175C341.261 18.0739 342.15 18.8093 342.778 19.9457C343.406 21.082 343.567 22.2477 343.25 23.421C342.934 24.5942 342.226 25.4702 341.138 26.0709L337.855 27.8847L333.437 19.8867L336.72 18.0729ZM339.907 23.8419C340.82 23.3374 341.096 22.2439 340.516 21.195C339.937 20.146 338.864 19.7973 337.951 20.3018L337.038 20.8063L339.006 24.3683L339.919 23.8638L339.907 23.8419Z" fill="#90BD3A"/>
<path d="M353.032 20.2712L356.412 20.1725L356.481 22.5585L350.522 22.7134L350.251 13.5933L356.155 13.4406L356.236 15.8484L352.934 15.9329L352.965 16.9139L355.956 16.8305L356.023 19.1608L353.011 19.2562L353.032 20.2712Z" fill="#90BD3A"/>
<path d="M366.455 22.8381L369.18 24.0711L368.155 26.3771L363.068 24.0533L366.795 15.748L369.179 16.8268L366.455 22.8381Z" fill="#90BD3A"/>
<path d="M379.221 23.5998L381.037 25.4487L374.567 31.8186L372.738 29.9478L379.221 23.5998Z" fill="#90BD3A"/>
<path d="M379.292 39.1894L386.785 33.2819L387.791 35.9773L382.896 39.3945L388.824 38.7721L389.831 41.4675L380.289 41.9187L379.292 39.1894Z" fill="#90BD3A"/>
<path d="M383.783 53.2793L383.406 56.6539L381.034 56.3671L381.69 50.4143L390.729 51.4673L390.058 57.3426L387.698 57.0776L388.057 53.7708L387.083 53.6526L386.766 56.623L384.44 56.3679L384.779 53.3855L383.783 53.2793Z" fill="#90BD3A"/>
<path d="M376.48 66.1557L379.657 66.5115L380.012 65.9729L377.618 64.4145L379.027 62.2386L386.655 67.209L384.683 70.2664C384.151 71.102 383.45 71.6317 382.602 71.8435C381.766 72.0771 380.948 71.9305 380.134 71.3819C379.24 70.7917 378.755 69.8619 378.789 68.8448L374.967 68.5031L376.48 66.1557ZM383.241 68.068L381.821 67.1412L381.289 67.9769C380.975 68.4356 381.062 68.901 381.497 69.1743C381.943 69.4693 382.395 69.3624 382.697 68.8818L383.241 68.068Z" fill="#90BD3A"/>
<path d="M22.5879 75.6875L30.3516 54.3008H37.6172L25.6641 86H19.541L7.64648 54.3008H14.9121L22.5879 75.6875ZM12.8027 54.3008V86H3.63281V54.3008H12.8027ZM32.6953 86V54.3008H41.8359V86H32.6953ZM65.6543 78.4414V64.8477C65.6543 63.8906 65.5078 63.0703 65.2148 62.3867C64.9219 61.7031 64.4629 61.166 63.8379 60.7754C63.2129 60.3848 62.4023 60.1895 61.4062 60.1895C60.5664 60.1895 59.834 60.3359 59.209 60.6289C58.6035 60.9219 58.1348 61.3418 57.8027 61.8887C57.4902 62.4355 57.334 63.1094 57.334 63.9102H48.1934C48.1934 62.4844 48.5156 61.1562 49.1602 59.9258C49.8047 58.6953 50.7227 57.6113 51.9141 56.6738C53.125 55.7363 54.5703 55.0137 56.25 54.5059C57.9297 53.9785 59.8145 53.7148 61.9043 53.7148C64.3848 53.7148 66.5918 54.1348 68.5254 54.9746C70.4785 55.7949 72.0215 57.0352 73.1543 58.6953C74.2871 60.3359 74.8535 62.4062 74.8535 64.9062V78.1777C74.8535 80.0918 74.9609 81.5957 75.1758 82.6895C75.4102 83.7637 75.7422 84.7012 76.1719 85.502V86H66.9434C66.5137 85.082 66.1914 83.9492 65.9766 82.6016C65.7617 81.2344 65.6543 79.8477 65.6543 78.4414ZM66.7969 66.6641L66.8555 71.7031H62.3145C61.2988 71.7031 60.4199 71.8301 59.6777 72.084C58.9551 72.3379 58.3691 72.6895 57.9199 73.1387C57.4707 73.5684 57.1387 74.0762 56.9238 74.6621C56.7285 75.2285 56.6309 75.8535 56.6309 76.5371C56.6309 77.1816 56.7871 77.7676 57.0996 78.2949C57.4121 78.8027 57.8418 79.2031 58.3887 79.4961C58.9355 79.7891 59.5703 79.9355 60.293 79.9355C61.4844 79.9355 62.5 79.7012 63.3398 79.2324C64.1992 78.7637 64.8633 78.1973 65.332 77.5332C65.8008 76.8496 66.0352 76.2148 66.0352 75.6289L68.2324 79.4375C67.8809 80.2188 67.4512 81.0293 66.9434 81.8691C66.4355 82.6895 65.791 83.4609 65.0098 84.1836C64.2285 84.8867 63.2812 85.4629 62.168 85.9121C61.0742 86.3613 59.7559 86.5859 58.2129 86.5859C56.2207 86.5859 54.4141 86.1855 52.793 85.3848C51.1719 84.5645 49.873 83.4414 48.8965 82.0156C47.9395 80.5898 47.4609 78.9492 47.4609 77.0938C47.4609 75.4336 47.7637 73.959 48.3691 72.6699C48.9746 71.3809 49.8828 70.2871 51.0938 69.3887C52.3242 68.4902 53.8672 67.8164 55.7227 67.3672C57.5781 66.8984 59.7461 66.6641 62.2266 66.6641H66.7969ZM102.715 54.3008V61.4199H89.8828V86H80.7422V54.3008H102.715ZM122.783 78.4414V64.8477C122.783 63.8906 122.637 63.0703 122.344 62.3867C122.051 61.7031 121.592 61.166 120.967 60.7754C120.342 60.3848 119.531 60.1895 118.535 60.1895C117.695 60.1895 116.963 60.3359 116.338 60.6289C115.732 60.9219 115.264 61.3418 114.932 61.8887C114.619 62.4355 114.463 63.1094 114.463 63.9102H105.322C105.322 62.4844 105.645 61.1562 106.289 59.9258C106.934 58.6953 107.852 57.6113 109.043 56.6738C110.254 55.7363 111.699 55.0137 113.379 54.5059C115.059 53.9785 116.943 53.7148 119.033 53.7148C121.514 53.7148 123.721 54.1348 125.654 54.9746C127.607 55.7949 129.15 57.0352 130.283 58.6953C131.416 60.3359 131.982 62.4062 131.982 64.9062V78.1777C131.982 80.0918 132.09 81.5957 132.305 82.6895C132.539 83.7637 132.871 84.7012 133.301 85.502V86H124.072C123.643 85.082 123.32 83.9492 123.105 82.6016C122.891 81.2344 122.783 79.8477 122.783 78.4414ZM123.926 66.6641L123.984 71.7031H119.443C118.428 71.7031 117.549 71.8301 116.807 72.084C116.084 72.3379 115.498 72.6895 115.049 73.1387C114.6 73.5684 114.268 74.0762 114.053 74.6621C113.857 75.2285 113.76 75.8535 113.76 76.5371C113.76 77.1816 113.916 77.7676 114.229 78.2949C114.541 78.8027 114.971 79.2031 115.518 79.4961C116.064 79.7891 116.699 79.9355 117.422 79.9355C118.613 79.9355 119.629 79.7012 120.469 79.2324C121.328 78.7637 121.992 78.1973 122.461 77.5332C122.93 76.8496 123.164 76.2148 123.164 75.6289L125.361 79.4375C125.01 80.2188 124.58 81.0293 124.072 81.8691C123.564 82.6895 122.92 83.4609 122.139 84.1836C121.357 84.8867 120.41 85.4629 119.297 85.9121C118.203 86.3613 116.885 86.5859 115.342 86.5859C113.35 86.5859 111.543 86.1855 109.922 85.3848C108.301 84.5645 107.002 83.4414 106.025 82.0156C105.068 80.5898 104.59 78.9492 104.59 77.0938C104.59 75.4336 104.893 73.959 105.498 72.6699C106.104 71.3809 107.012 70.2871 108.223 69.3887C109.453 68.4902 110.996 67.8164 112.852 67.3672C114.707 66.8984 116.875 66.6641 119.355 66.6641H123.926ZM152.695 70.8828H146.309V66.9863H150.586C151.543 66.9863 152.305 66.8496 152.871 66.5762C153.457 66.3027 153.877 65.9219 154.131 65.4336C154.404 64.9453 154.541 64.3789 154.541 63.7344C154.541 63.168 154.434 62.6309 154.219 62.123C154.023 61.6152 153.652 61.1953 153.105 60.8633C152.559 60.5117 151.777 60.3359 150.762 60.3359C149.922 60.3359 149.18 60.4629 148.535 60.7168C147.91 60.9512 147.412 61.293 147.041 61.7422C146.689 62.1914 146.514 62.7578 146.514 63.4414H137.344C137.344 61.4102 137.92 59.6719 139.072 58.2266C140.225 56.7812 141.777 55.6777 143.73 54.916C145.684 54.1348 147.842 53.7441 150.205 53.7441C152.256 53.7441 154.111 53.9492 155.771 54.3594C157.432 54.75 158.848 55.3359 160.02 56.1172C161.191 56.8984 162.09 57.8652 162.715 59.0176C163.359 60.1504 163.682 61.4688 163.682 62.9727C163.682 64.0469 163.428 65.0625 162.92 66.0195C162.412 66.9766 161.68 67.8262 160.723 68.5684C159.766 69.291 158.604 69.8574 157.236 70.2676C155.889 70.6777 154.375 70.8828 152.695 70.8828ZM146.309 68.7734H152.695C154.57 68.7734 156.23 68.959 157.676 69.3301C159.121 69.6816 160.332 70.209 161.309 70.9121C162.285 71.6152 163.018 72.4844 163.506 73.5195C164.014 74.5352 164.268 75.707 164.268 77.0352C164.268 78.5391 163.916 79.8867 163.213 81.0781C162.529 82.25 161.562 83.2461 160.312 84.0664C159.062 84.8867 157.578 85.5117 155.859 85.9414C154.141 86.3711 152.256 86.5859 150.205 86.5859C148.018 86.5859 145.898 86.2344 143.848 85.5312C141.797 84.8281 140.117 83.7441 138.809 82.2793C137.5 80.8145 136.846 78.9297 136.846 76.625H146.016C146.016 77.2305 146.182 77.7871 146.514 78.2949C146.865 78.8027 147.393 79.2129 148.096 79.5254C148.799 79.8379 149.697 79.9941 150.791 79.9941C151.865 79.9941 152.715 79.8184 153.34 79.4668C153.984 79.0957 154.443 78.627 154.717 78.0605C154.99 77.4941 155.127 76.9082 155.127 76.3027C155.127 75.4043 154.951 74.6914 154.6 74.1641C154.268 73.6172 153.76 73.2168 153.076 72.9629C152.412 72.6895 151.582 72.5527 150.586 72.5527H146.309V68.7734ZM177.979 73.4609L187.676 54.3008H196.816V86H187.676V66.7812L177.979 86H168.809V54.3008H177.979V73.4609ZM224.531 66.8984V73.959H208.564V66.8984H224.531ZM211.758 54.3008V86H202.617V54.3008H211.758ZM230.566 54.3008V86H221.367V54.3008H230.566ZM242.754 63.3535H251.836C254.805 63.3535 257.344 63.832 259.453 64.7891C261.562 65.7461 263.184 67.084 264.316 68.8027C265.449 70.5215 266.016 72.5137 266.016 74.7793C266.016 76.4004 265.693 77.9043 265.049 79.291C264.424 80.6582 263.496 81.8398 262.266 82.8359C261.055 83.832 259.57 84.6133 257.812 85.1797C256.055 85.7266 254.062 86 251.836 86H237.129V54.3008H246.328V78.9395H251.836C253.047 78.9395 254.014 78.7539 254.736 78.3828C255.479 77.9922 256.016 77.4746 256.348 76.8301C256.699 76.1855 256.875 75.4922 256.875 74.75C256.875 73.9492 256.699 73.2266 256.348 72.582C256.016 71.918 255.479 71.4004 254.736 71.0293C254.014 70.6387 253.047 70.4434 251.836 70.4434H242.754V63.3535ZM280.107 54.3008V86H270.908V54.3008H280.107Z" fill="url(#paint0_linear_1318_336)"/>
<path d="M310 58H359L352 86H316.417L310 58Z" fill="#90BD3A"/>
<rect x="323.269" y="40.2891" width="5.8605" height="22.3856" rx="2.93025" transform="rotate(23.3324 323.269 40.2891)" fill="black"/>
<rect width="5.8605" height="24.1181" rx="2.93025" transform="matrix(-0.918222 0.396065 0.396065 0.918222 344.2 40.2891)" fill="black"/>
<rect x="306" y="58" width="56" height="7" fill="#90BD3A"/>
<defs>
<linearGradient id="paint0_linear_1318_336" x1="277.5" y1="92" x2="-8.50001" y2="92" gradientUnits="userSpaceOnUse">
<stop offset="0.340914" stop-color="#90BD3A"/>
<stop offset="1"/>
</linearGradient>
</defs>
</svg>
