<svg width="47" height="47" viewBox="0 0 47 47" fill="none" xmlns="http://www.w3.org/2000/svg">
<path d="M23.5 47C36.4787 47 47 36.4787 47 23.5C47 10.5213 36.4787 0 23.5 0C10.5213 0 0 10.5213 0 23.5C0 36.4787 10.5213 47 23.5 47Z" fill="url(#paint0_linear_1318_887)"/>
<path fill-rule="evenodd" clip-rule="evenodd" d="M10.6375 23.2514C17.4882 20.2667 22.0564 18.2989 24.3422 17.3482C30.8684 14.6338 32.2245 14.1622 33.1083 14.1467C33.3027 14.1432 33.7374 14.1914 34.019 14.4199C34.2567 14.6128 34.3221 14.8734 34.3534 15.0563C34.3847 15.2392 34.4237 15.6558 34.3927 15.9814C34.0391 19.6973 32.5088 28.7148 31.7303 32.8767C31.4009 34.6377 30.7522 35.2282 30.1243 35.286C28.7596 35.4116 27.7233 34.3841 26.4015 33.5177C24.3332 32.1619 23.1648 31.3179 21.1571 29.9949C18.8369 28.4659 20.341 27.6256 21.6633 26.2522C22.0093 25.8928 28.0222 20.4236 28.1385 19.9275C28.1531 19.8654 28.1666 19.6342 28.0292 19.512C27.8918 19.3899 27.689 19.4317 27.5426 19.4649C27.3352 19.512 24.0311 21.6959 17.6302 26.0166C16.6923 26.6606 15.8428 26.9744 15.0817 26.958C14.2427 26.9398 12.6286 26.4836 11.4287 26.0935C9.95706 25.6151 8.78739 25.3622 8.88924 24.5498C8.94229 24.1266 9.52504 23.6938 10.6375 23.2514Z" fill="white"/>
<defs>
<linearGradient id="paint0_linear_1318_887" x1="23.5" y1="0" x2="23.5" y2="46.6514" gradientUnits="userSpaceOnUse">
<stop stop-color="#2AABEE"/>
<stop offset="1" stop-color="#229ED9"/>
</linearGradient>
</defs>
</svg>
