<svg width="48" height="48" viewBox="0 0 48 48" fill="none" xmlns="http://www.w3.org/2000/svg">
<path d="M0 23.04C0 12.1788 0 6.74826 3.37413 3.37413C6.74826 0 12.1788 0 23.04 0H24.96C35.8212 0 41.2517 0 44.6259 3.37413C48 6.74826 48 12.1788 48 23.04V24.96C48 35.8212 48 41.2517 44.6259 44.6259C41.2517 48 35.8212 48 24.96 48H23.04C12.1788 48 6.74826 48 3.37413 44.6259C0 41.2517 0 35.8212 0 24.96V23.04Z" fill="#0077FF"/>
<path d="M25.54 34.5796C14.6 34.5796 8.3601 27.0796 8.1001 14.5996H13.5801C13.7601 23.7596 17.8 27.6396 21 28.4396V14.5996H26.1602V22.4996C29.3202 22.1596 32.6398 18.5596 33.7598 14.5996H38.9199C38.0599 19.4796 34.4599 23.0796 31.8999 24.5596C34.4599 25.7596 38.5601 28.8996 40.1201 34.5796H34.4399C33.2199 30.7796 30.1802 27.8396 26.1602 27.4396V34.5796H25.54Z" fill="white"/>
<path d="M25.4399 34.98C14.4999 34.98 8.26 27.48 8 15H13.48C13.66 24.16 17.6999 28.04 20.8999 28.84V15H26.0601V22.9C29.2201 22.56 32.5397 18.96 33.6597 15H38.8198C37.9598 19.88 34.3598 23.48 31.7998 24.96C34.3598 26.16 38.46 29.3 40.02 34.98H34.3398C33.1198 31.18 30.0801 28.24 26.0601 27.84V34.98H25.4399Z" fill="white"/>
</svg>
